<?xml version="1.0" encoding="utf-8"?>
<!-- Generator: Adobe Illustrator 27.0.1, SVG Export Plug-In . SVG Version: 6.00 Build 0)  -->
<svg version="1.1" id="Layer_1" xmlns="http://www.w3.org/2000/svg" xmlns:xlink="http://www.w3.org/1999/xlink" x="0px" y="0px"
	 viewBox="0 0 512 512" style="enable-background:new 0 0 512 512;" xml:space="preserve">
<style type="text/css">
	.st0{fill:#FFFFFF;}
</style>
<path d="M76.8,0h358.4C477.6,0,512,34.4,512,76.8v358.4c0,42.4-34.4,76.8-76.8,76.8H76.8C34.4,512,0,477.6,0,435.2V76.8
	C0,34.4,34.4,0,76.8,0z"/>
<path class="st0" d="M213,111l-107,94h69c5,45,41,64,78,67c-7,18-4,27,7,39c-43,1-103,26-103,67c4,45,63,54,92,54c38,1,81-19,90-54
	c4-35-10-54-31-71c-23-18-28-28-21-40c15-17,35-27,39-51c2-17-2-28-6-43l45-38l-1,16c-3,2-5,6-5,9v103c2,13,22,11,23,0V160
	c0-3-2-7-5-8v-25l16-16H213z M271,252c-61,10-87-87-38-99C289,142,316,239,271,252z M266,325c60,13,61,63,10,78c-44,9-82-4-81-30
	C195,348,230,325,266,325z"/>
</svg>
