<?xml version="1.0" encoding="utf-8"?>
<!-- Generator: Adobe Illustrator 27.0.1, SVG Export Plug-In . SVG Version: 6.00 Build 0)  -->
<svg version="1.1" id="Layer_1" xmlns="http://www.w3.org/2000/svg" xmlns:xlink="http://www.w3.org/1999/xlink" x="0px" y="0px"
	 viewBox="0 0 512 512" style="enable-background:new 0 0 512 512;" xml:space="preserve">
<style type="text/css">
	.st0{display:none;fill:#FFFFFF;}
	.st1{display:none;fill-rule:evenodd;clip-rule:evenodd;fill:#FFFFFF;}
	.st2{fill:#FFFFFF;}
</style>
<path d="M76.8,0h358.4C477.6,0,512,34.4,512,76.8v358.4c0,42.4-34.4,76.8-76.8,76.8H76.8C34.4,512,0,477.6,0,435.2V76.8
	C0,34.4,34.4,0,76.8,0z"/>
<path class="st0" d="M213,111l-107,94h69c5,45,41,64,78,67c-7,18-4,27,7,39c-43,1-103,26-103,67c4,45,63,54,92,54c38,1,81-19,90-54
	c4-35-10-54-31-71c-23-18-28-28-21-40c15-17,35-27,39-51c2-17-2-28-6-43l45-38l-1,16c-3,2-5,6-5,9v103c2,13,22,11,23,0V160
	c0-3-2-7-5-8v-25l16-16H213z M271,252c-61,10-87-87-38-99C289,142,316,239,271,252z M266,325c60,13,61,63,10,78c-44,9-82-4-81-30
	C195,348,230,325,266,325z"/>
<path class="st1" d="M218.1,429.3c-4.4,0-7.9-3.7-7.6-8.1c0-0.1,0-0.2,0-0.3c0-5.4-0.3-23.3-0.3-42.3c-57,10.5-71.8-13.9-76.3-26.7
	c-2.6-6.5-13.6-26.7-23.3-32.1c-7.9-4.3-19.3-14.8-0.3-15c17.9-0.3,30.7,16.5,34.9,23.3c20.4,34.3,53.1,24.7,66.1,18.7
	c2-14.8,7.9-24.7,14.5-30.4c-50.5-5.7-103.3-25.3-103.3-112.1c0-24.7,8.8-45.1,23.3-61c-2.3-5.7-10.2-28.9,2.3-60.2
	c0,0,19-6,62.4,23.3c18.2-5.1,37.5-7.7,56.8-7.7s38.6,2.6,56.8,7.7c43.4-29.5,62.4-23.3,62.4-23.3c12.5,31.2,4.5,54.5,2.3,60.2
	c14.5,15.9,23.3,36,23.3,61c0,87.1-53.1,106.4-103.6,112.1c8.2,7.1,15.3,20.7,15.3,42c0,30.4-0.3,54.8-0.3,62.4v0.1
	c0.1,4.4-3.2,8-7.6,8L218.1,429.3z"/>
<path class="st2" d="M387.5,188.5c0.2,2.9,0.2,5.8,0.2,8.8c0,89.7-68.3,193.1-193.1,193.1v-0.1c-36.9,0.1-73-10.5-104-30.4
	c5.4,0.6,10.7,1,16.1,1c30.6,0,60.2-10.2,84.3-29.1c-29-0.6-54.5-19.5-63.4-47.1c10.2,2,20.7,1.6,30.6-1.2
	c-31.7-6.4-54.4-34.2-54.4-66.5v-0.9c9.4,5.3,20,8.2,30.8,8.5c-29.8-19.9-39-59.6-21-90.6c34.4,42.4,85.3,68.2,139.8,70.9
	c-5.5-23.6,2-48.3,19.6-64.8c27.3-25.7,70.3-24.4,96,2.9c15.2-3,29.8-8.6,43.1-16.5c-5.1,15.7-15.7,29-29.8,37.5
	c13.4-1.6,26.6-5.2,39-10.7C412.2,167,400.8,178.9,387.5,188.5L387.5,188.5z"/>
</svg>
