<?xml version="1.0" encoding="utf-8"?>
<!-- Generator: Adobe Illustrator 27.0.1, SVG Export Plug-In . SVG Version: 6.00 Build 0)  -->
<svg version="1.1" id="Layer_1" xmlns="http://www.w3.org/2000/svg" xmlns:xlink="http://www.w3.org/1999/xlink" x="0px" y="0px"
	 viewBox="0 0 500 500" style="enable-background:new 0 0 500 500;" xml:space="preserve">
<style type="text/css">
	.st0{fill:#231F20;}
	.st1{fill:#FFFFFF;}
</style>
<path class="st0" d="M391.2,474.5H108.8c-47.7,0-86.3-38.7-86.3-86.3V105.8c0-47.7,38.7-86.3,86.3-86.3h282.3
	c47.7,0,86.3,38.7,86.3,86.3v282.3C477.5,435.8,438.8,474.5,391.2,474.5z"/>
<polygon class="st1" points="250.5,140.9 274.7,202.2 337.8,182.9 304.9,240.1 359.4,277.3 294.1,287.3 298.9,353.1 250.5,308.3 
	202.1,353.1 206.9,287.3 141.6,277.3 196.1,240.1 163.2,182.9 226.3,202.2 "/>
</svg>
